<mxfile host="app.diagrams.net" modified="2025-05-08T16:22:58Z" agent="Mozilla/5.0" version="21.2.9" type="device"><diagram name="Conflict Resolution Test" id="test-conflict-resolution"><mxGraphModel><root><mxCell id="0"/><mxCell id="1" parent="0"/><mxCell id="2" value="Improved Conflict Resolution" style="rounded=1;whiteSpace=wrap;html=1;" vertex="1" parent="1"><mxGeometry x="350" y="230" width="120" height="60" as="geometry"/></mxCell></root></mxGraphModel></diagram></mxfile>
